{"glyphs":{"\r":{"ha":0,"x_min":0,"x_max":0,"o":""},"\u0000":{"ha":0,"x_min":0,"x_max":0,"o":""}," ":{"ha":268,"x_min":0,"x_max":0,"o":""},"Ą":{"ha":944,"x_min":7,"x_max":990,"o":"m 958 -147 q 966 -149 963 -147 q 971 -156 969 -152 l 990 -201 q 937 -227 969 -217 q 869 -237 905 -237 q 773 -210 808 -237 q 738 -137 738 -183 q 766 -61 738 -97 q 835 0 793 -26 q 806 9 817 0 q 790 32 795 18 l 697 272 l 250 272 l 157 32 q 140 10 152 19 q 111 0 128 0 l 7 0 l 405 995 l 542 995 l 940 0 l 914 0 q 885 -18 900 -8 q 859 -43 871 -29 q 840 -73 847 -56 q 832 -107 832 -89 q 849 -148 832 -133 q 895 -163 866 -163 q 922 -161 911 -163 q 939 -155 932 -158 q 950 -149 946 -152 q 958 -147 955 -147 m 288 369 l 659 369 l 503 774 q 473 868 488 812 q 458 816 465 840 q 444 774 451 792 l 288 369 z "},"ą":{"ha":704,"x_min":64,"x_max":694,"o":"m 618 0 q 590 -18 604 -8 q 563 -43 575 -29 q 544 -73 551 -56 q 536 -107 536 -89 q 553 -148 536 -133 q 599 -163 570 -163 q 626 -161 615 -163 q 643 -155 636 -158 q 655 -149 650 -152 q 663 -147 659 -147 q 670 -149 667 -147 q 675 -156 674 -152 l 694 -201 q 641 -227 674 -217 q 574 -237 609 -237 q 477 -210 513 -237 q 442 -137 442 -183 q 450 -97 442 -117 q 471 -60 458 -78 q 503 -27 485 -42 q 543 2 522 -11 q 519 29 526 7 l 506 94 q 451 50 478 69 q 396 16 425 30 q 334 -4 367 3 q 260 -11 301 -11 q 184 0 219 -11 q 122 35 148 12 q 80 93 95 58 q 64 176 64 128 q 87 256 64 217 q 161 324 110 294 q 294 373 212 354 q 497 395 377 392 l 497 450 q 461 574 497 532 q 358 616 426 616 q 282 605 313 616 q 228 579 251 593 q 189 553 206 565 q 157 542 173 542 q 135 548 144 542 q 120 565 126 555 l 98 604 q 224 688 156 660 q 373 716 291 716 q 478 697 432 716 q 555 642 524 677 q 602 558 586 608 q 618 450 618 509 l 618 0 m 297 76 q 357 82 330 76 q 408 101 384 89 q 454 131 432 113 q 497 170 476 148 l 497 317 q 351 303 411 314 q 254 275 292 292 q 200 234 217 258 q 183 181 183 210 q 192 133 183 153 q 216 100 201 113 q 252 82 231 88 q 297 76 273 76 z "},"Ć":{"ha":951,"x_min":63,"x_max":895,"o":"m 822 206 q 842 197 833 206 l 895 139 q 747 28 834 68 q 537 -11 660 -11 q 342 26 429 -11 q 192 130 254 63 q 97 291 131 197 q 63 497 63 385 q 99 703 63 610 q 201 865 135 797 q 359 969 267 932 q 563 1006 451 1006 q 752 972 672 1006 q 893 880 831 938 l 849 818 q 838 807 844 811 q 820 802 832 802 q 801 809 811 802 q 777 825 791 815 q 744 846 763 835 q 700 867 726 857 q 640 883 674 876 q 562 890 606 890 q 416 862 482 890 q 301 784 349 835 q 227 660 253 733 q 200 497 200 588 q 227 331 200 404 q 300 208 253 258 q 409 131 346 158 q 545 105 472 105 q 625 110 590 105 q 691 126 660 115 q 747 155 721 138 q 799 195 773 172 q 822 206 811 206 m 797 1238 l 592 1088 q 572 1076 581 1079 q 548 1074 563 1074 l 452 1074 l 599 1215 q 611 1226 606 1222 q 624 1233 617 1230 q 638 1236 630 1235 q 657 1238 645 1238 l 797 1238 z "},"ć":{"ha":649,"x_min":51,"x_max":622,"o":"m 581 578 q 570 567 576 571 q 554 563 565 563 q 532 571 544 563 q 501 590 519 580 q 455 609 482 601 q 390 618 428 618 q 299 600 338 618 q 232 547 259 581 q 192 463 206 512 q 178 352 178 413 q 193 239 178 288 q 234 155 208 189 q 298 104 260 122 q 383 86 336 86 q 458 97 428 86 q 506 121 487 108 q 538 145 526 134 q 563 156 551 156 q 587 144 579 156 l 622 99 q 507 16 576 42 q 362 -10 438 -10 q 239 15 296 -10 q 141 85 183 39 q 75 199 99 131 q 51 352 51 266 q 73 497 51 431 q 137 612 95 564 q 241 688 179 660 q 383 715 303 715 q 513 691 456 715 q 614 623 570 667 l 581 578 m 583 1006 l 422 827 q 402 812 412 817 q 378 808 393 808 l 305 808 l 408 976 q 429 999 417 992 q 463 1006 440 1006 l 583 1006 z "},"Ę":{"ha":825,"x_min":121,"x_max":747,"o":"m 715 -147 q 723 -149 720 -147 q 728 -156 726 -152 l 747 -201 q 694 -227 726 -217 q 626 -237 662 -237 q 530 -210 565 -237 q 495 -137 495 -183 q 523 -61 495 -97 q 592 0 550 -26 l 121 0 l 121 995 l 734 995 l 734 885 l 256 885 l 256 555 l 643 555 l 643 449 l 256 449 l 256 110 l 734 110 l 734 0 l 671 0 q 642 -18 657 -8 q 616 -43 628 -29 q 597 -73 604 -56 q 589 -107 589 -89 q 606 -148 589 -133 q 652 -163 623 -163 q 678 -161 668 -163 q 696 -155 689 -158 q 707 -149 703 -152 q 715 -147 712 -147 z "},"ę":{"ha":728,"x_min":51,"x_max":672,"o":"m 517 -147 q 525 -149 522 -147 q 530 -156 528 -152 l 549 -201 q 496 -227 528 -217 q 428 -237 464 -237 q 332 -210 367 -237 q 297 -137 297 -183 q 320 -68 297 -100 q 379 -10 343 -35 q 248 17 308 -8 q 144 90 188 42 q 76 207 100 138 q 51 366 51 276 q 74 503 51 440 q 139 614 97 567 q 242 688 181 661 q 380 715 303 715 q 497 693 443 715 q 589 632 550 672 q 650 534 628 592 q 672 400 672 475 q 665 361 672 371 q 642 351 659 351 l 174 351 q 192 235 175 285 q 238 153 208 186 q 307 104 267 120 q 397 88 347 88 q 477 98 444 88 q 535 122 511 109 q 576 145 560 134 q 604 156 592 156 q 628 144 619 156 l 663 99 q 577 32 628 57 q 469 -2 526 8 q 441 -20 455 -10 q 416 -44 428 -31 q 398 -74 405 -58 q 391 -107 391 -90 q 408 -148 391 -133 q 454 -163 425 -163 q 481 -161 470 -163 q 498 -155 491 -158 q 509 -149 505 -152 q 517 -147 514 -147 m 383 624 q 242 572 293 624 q 178 428 190 520 l 560 428 q 549 507 560 472 q 514 569 537 543 q 458 609 491 595 q 383 624 425 624 z "},"Ł":{"ha":754,"x_min":31,"x_max":726,"o":"m 295 559 l 562 695 l 562 606 q 543 576 562 585 l 295 445 l 295 113 l 726 113 l 726 0 l 160 0 l 160 385 l 31 319 l 31 411 q 48 438 31 429 l 160 498 l 160 995 l 295 995 l 295 559 z "},"ł":{"ha":446,"x_min":38,"x_max":408,"o":"m 284 1023 l 284 624 l 408 678 l 408 607 q 403 589 408 596 q 389 576 399 581 l 284 530 l 284 0 l 160 0 l 160 484 l 38 431 l 38 504 q 55 532 38 524 l 160 579 l 160 1023 l 284 1023 z "},"Ń":{"ha":1050,"x_min":121,"x_max":928,"o":"m 190 995 q 217 991 208 995 q 237 972 226 986 l 813 222 q 810 257 811 240 q 810 290 810 274 l 810 995 l 928 995 l 928 0 l 860 0 q 833 6 844 0 q 812 24 822 11 l 236 774 q 238 740 238 756 q 239 709 239 723 l 239 0 l 121 0 l 121 995 l 190 995 l 190 995 m 779 1238 l 575 1088 q 554 1076 563 1079 q 531 1074 545 1074 l 435 1074 l 581 1215 q 594 1226 588 1222 q 606 1233 600 1230 q 620 1236 613 1235 q 640 1238 628 1238 l 779 1238 z "},"ń":{"ha":772,"x_min":101,"x_max":687,"o":"m 101 0 l 101 703 l 175 703 q 208 678 201 703 l 218 601 q 320 683 264 652 q 451 715 377 715 q 553 695 509 715 q 627 641 597 676 q 672 557 656 606 q 687 448 687 508 l 687 0 l 563 0 l 563 448 q 527 572 563 528 q 415 616 490 616 q 313 590 360 616 q 225 518 265 563 l 225 0 l 101 0 m 597 1006 l 435 827 q 416 812 425 817 q 392 808 406 808 l 318 808 l 421 976 q 442 999 431 992 q 476 1006 453 1006 l 597 1006 z "},"Ś":{"ha":761,"x_min":40,"x_max":685,"o":"m 631 840 q 617 824 624 829 q 599 819 610 819 q 572 831 588 819 q 532 857 556 842 q 475 883 508 871 q 393 894 441 894 q 313 882 348 894 q 255 849 278 870 q 220 800 232 828 q 208 740 208 772 q 229 670 208 698 q 283 624 249 643 q 359 590 317 604 q 447 560 402 576 q 534 526 492 545 q 611 478 577 507 q 665 406 644 449 q 685 302 685 364 q 663 180 685 237 q 598 80 641 122 q 493 13 556 38 q 352 -11 431 -11 q 176 24 256 -11 q 40 119 97 59 l 79 183 q 93 195 85 190 q 110 201 101 201 q 144 185 125 201 q 191 151 163 169 q 259 116 219 132 q 356 101 299 101 q 442 114 404 101 q 505 151 479 127 q 545 208 531 175 q 559 283 559 242 q 539 357 559 328 q 485 405 518 385 q 409 438 451 424 q 321 466 366 451 q 234 499 276 480 q 158 547 191 517 q 104 622 124 577 q 83 733 83 667 q 104 835 83 785 q 163 922 124 884 q 259 983 202 960 q 391 1006 317 1006 q 543 980 474 1006 q 663 903 612 953 l 631 840 m 639 1238 l 435 1088 q 414 1076 423 1079 q 390 1074 405 1074 l 294 1074 l 441 1215 q 454 1226 448 1222 q 466 1233 460 1230 q 480 1236 472 1235 q 499 1238 488 1238 l 639 1238 z "},"ś":{"ha":603,"x_min":43,"x_max":544,"o":"m 504 588 q 478 572 496 572 q 455 580 468 572 q 423 597 442 588 q 377 614 403 606 q 315 622 351 622 q 258 614 283 622 q 216 592 233 606 q 189 560 198 578 q 179 520 179 542 q 195 475 179 493 q 236 444 210 457 q 294 420 262 431 q 361 399 327 410 q 428 374 396 388 q 487 339 461 360 q 528 288 513 318 q 544 215 544 258 q 526 125 544 167 q 475 54 509 84 q 392 6 441 24 q 278 -11 342 -11 q 144 13 204 -11 q 43 74 85 37 l 72 122 q 85 135 78 131 q 106 140 93 140 q 132 131 118 140 q 166 109 146 121 q 214 88 185 97 q 284 78 242 78 q 347 87 320 78 q 392 113 374 97 q 419 149 410 128 q 428 194 428 170 q 412 242 428 223 q 371 275 397 261 q 312 298 345 288 q 245 319 279 308 q 177 345 210 331 q 119 381 144 359 q 77 434 93 402 q 62 510 62 465 q 78 588 62 551 q 127 653 95 625 q 206 698 159 681 q 312 715 252 715 q 436 693 381 715 q 532 633 492 671 l 504 588 m 531 1006 l 369 827 q 350 812 359 817 q 326 808 340 808 l 252 808 l 355 976 q 376 999 365 992 q 410 1006 388 1006 l 531 1006 z "},"Š":{"ha":736,"x_min":40,"x_max":685,"o":"m 631 840 q 617 824 624 829 q 599 819 610 819 q 572 831 588 819 q 532 857 556 842 q 475 883 508 871 q 393 894 441 894 q 313 882 348 894 q 255 849 278 870 q 220 800 232 828 q 208 740 208 772 q 229 670 208 698 q 283 624 249 643 q 359 590 317 604 q 447 560 402 576 q 534 526 492 545 q 611 478 577 507 q 665 406 644 449 q 685 302 685 364 q 663 180 685 237 q 598 80 641 122 q 493 13 556 38 q 352 -11 431 -11 q 176 24 256 -11 q 40 119 97 59 l 79 183 q 93 195 85 190 q 110 201 101 201 q 144 185 125 201 q 191 151 163 169 q 259 116 219 132 q 356 101 299 101 q 442 114 404 101 q 505 151 479 127 q 545 208 531 175 q 559 283 559 242 q 539 357 559 328 q 485 405 518 385 q 409 438 451 424 q 321 466 366 451 q 234 499 276 480 q 158 547 191 517 q 104 622 124 577 q 83 733 83 667 q 104 835 83 785 q 163 922 124 884 q 259 983 202 960 q 391 1006 317 1006 q 543 980 474 1006 q 663 903 612 953 l 631 840 m 463 1074 l 340 1074 l 175 1219 l 269 1219 q 287 1217 277 1219 q 303 1210 297 1215 l 393 1145 q 398 1142 395 1144 q 401 1138 400 1140 q 405 1142 403 1140 q 410 1145 408 1144 l 500 1210 q 516 1217 506 1215 q 534 1219 526 1219 l 628 1219 l 463 1074 z "},"š":{"ha":603,"x_min":43,"x_max":544,"o":"m 504 588 q 478 572 496 572 q 455 580 468 572 q 423 597 442 588 q 377 614 403 606 q 315 622 351 622 q 258 614 283 622 q 216 592 233 606 q 189 560 198 578 q 179 520 179 542 q 195 475 179 493 q 236 444 210 457 q 294 420 262 431 q 361 399 327 410 q 428 374 396 388 q 487 339 461 360 q 528 288 513 318 q 544 215 544 258 q 526 125 544 167 q 475 54 509 84 q 392 6 441 24 q 278 -11 342 -11 q 144 13 204 -11 q 43 74 85 37 l 72 122 q 85 135 78 131 q 106 140 93 140 q 132 131 118 140 q 166 109 146 121 q 214 88 185 97 q 284 78 242 78 q 347 87 320 78 q 392 113 374 97 q 419 149 410 128 q 428 194 428 170 q 412 242 428 223 q 371 275 397 261 q 312 298 345 288 q 245 319 279 308 q 177 345 210 331 q 119 381 144 359 q 77 434 93 402 q 62 510 62 465 q 78 588 62 551 q 127 653 95 625 q 206 698 159 681 q 312 715 252 715 q 436 693 381 715 q 532 633 492 671 l 504 588 m 105 995 l 190 995 q 206 992 199 995 q 218 985 214 988 l 307 898 q 319 885 315 892 q 325 892 322 888 q 331 898 327 895 l 419 985 q 432 992 424 989 q 447 995 440 995 l 530 995 l 375 812 l 260 812 l 105 995 z "},"Ÿ":{"ha":874,"x_min":6,"x_max":869,"o":"m 504 396 l 504 0 l 370 0 l 370 396 l 6 995 l 124 995 q 152 986 142 995 q 170 964 163 977 l 398 577 q 421 531 412 553 q 438 489 431 510 q 455 532 446 510 q 478 577 464 553 l 705 964 q 722 985 711 975 q 750 995 733 995 l 869 995 l 504 396 m 367 1157 q 360 1128 367 1142 q 344 1104 354 1115 q 319 1088 333 1094 q 289 1082 305 1082 q 261 1088 274 1082 q 237 1104 247 1094 q 220 1128 226 1115 q 214 1157 214 1142 q 220 1187 214 1173 q 237 1212 226 1201 q 261 1228 247 1222 q 289 1235 274 1235 q 319 1228 305 1235 q 344 1212 333 1222 q 360 1187 354 1201 q 367 1157 367 1173 m 663 1157 q 656 1128 663 1142 q 640 1104 650 1115 q 615 1088 629 1094 q 586 1082 601 1082 q 556 1088 570 1082 q 532 1104 542 1094 q 516 1128 522 1115 q 510 1157 510 1142 q 516 1187 510 1173 q 532 1212 522 1201 q 556 1228 542 1222 q 586 1235 570 1235 q 615 1228 601 1235 q 640 1212 629 1222 q 656 1187 650 1201 q 663 1157 663 1173 z "},"Ź":{"ha":867,"x_min":60,"x_max":814,"o":"m 814 995 l 814 945 q 799 901 814 922 l 236 110 l 804 110 l 804 0 l 60 0 l 60 53 q 73 92 60 74 l 637 885 l 86 885 l 86 995 l 814 995 m 689 1238 l 485 1088 q 464 1076 473 1079 q 440 1074 455 1074 l 344 1074 l 491 1215 q 504 1226 498 1222 q 516 1233 510 1230 q 530 1236 522 1235 q 549 1238 538 1238 l 689 1238 z "},"ź":{"ha":642,"x_min":49,"x_max":592,"o":"m 592 651 q 588 625 592 638 q 575 603 583 613 l 194 97 l 578 97 l 578 0 l 49 0 l 49 51 q 53 73 49 60 q 66 96 58 85 l 449 606 l 70 606 l 70 703 l 592 703 l 592 651 m 540 1006 l 378 827 q 359 812 368 817 q 335 808 349 808 l 261 808 l 364 976 q 385 999 374 992 q 419 1006 397 1006 l 540 1006 z "},"Ż":{"ha":867,"x_min":60,"x_max":814,"o":"m 814 995 l 814 945 q 799 901 814 922 l 236 110 l 804 110 l 804 0 l 60 0 l 60 53 q 73 92 60 74 l 637 885 l 86 885 l 86 995 l 814 995 m 536 1172 q 529 1140 536 1156 q 510 1114 522 1125 q 483 1095 499 1102 q 450 1088 467 1088 q 418 1095 433 1088 q 391 1114 403 1102 q 373 1140 380 1125 q 367 1172 367 1156 q 373 1205 367 1190 q 391 1232 380 1220 q 418 1251 403 1244 q 450 1258 433 1258 q 483 1251 467 1258 q 510 1232 499 1244 q 529 1205 522 1220 q 536 1172 536 1190 z "},"ż":{"ha":642,"x_min":49,"x_max":592,"o":"m 592 651 q 588 625 592 638 q 575 603 583 613 l 194 97 l 578 97 l 578 0 l 49 0 l 49 51 q 53 73 49 60 q 66 96 58 85 l 449 606 l 70 606 l 70 703 l 592 703 l 592 651 m 426 929 q 419 895 426 911 q 400 868 412 880 q 372 849 388 856 q 338 842 356 842 q 304 849 319 842 q 276 868 288 856 q 258 895 265 880 q 251 929 251 911 q 258 964 251 947 q 276 992 265 980 q 304 1011 288 1004 q 338 1018 319 1018 q 372 1011 356 1018 q 400 992 388 1004 q 419 964 412 980 q 426 929 426 947 z "},"Ž":{"ha":867,"x_min":60,"x_max":814,"o":"m 814 995 l 814 945 q 799 901 814 922 l 236 110 l 804 110 l 804 0 l 60 0 l 60 53 q 73 92 60 74 l 637 885 l 86 885 l 86 995 l 814 995 m 513 1074 l 390 1074 l 225 1219 l 319 1219 q 337 1217 327 1219 q 353 1210 347 1215 l 443 1145 q 448 1142 445 1144 q 451 1138 450 1140 q 455 1142 453 1140 q 460 1145 458 1144 l 550 1210 q 566 1217 556 1215 q 584 1219 576 1219 l 678 1219 l 513 1074 z "},"ž":{"ha":642,"x_min":49,"x_max":592,"o":"m 592 651 q 588 625 592 638 q 575 603 583 613 l 194 97 l 578 97 l 578 0 l 49 0 l 49 51 q 53 73 49 60 q 66 96 58 85 l 449 606 l 70 606 l 70 703 l 592 703 l 592 651 m 125 995 l 210 995 q 226 992 219 995 q 238 985 234 988 l 327 898 q 339 885 335 892 q 345 892 342 888 q 351 898 347 895 l 440 985 q 452 992 444 989 q 467 995 460 995 l 550 995 l 395 812 l 280 812 l 125 995 z "},"ƒ":{"ha":806,"x_min":74,"x_max":701,"o":"m 467 533 l 406 26 q 305 -180 388 -116 q 74 -244 222 -244 l 74 -179 q 115 -140 74 -140 q 175 -131 147 -140 q 225 -101 203 -122 q 262 -49 247 -81 q 283 30 277 -17 l 344 530 l 237 540 q 215 550 222 542 q 208 572 208 559 l 208 623 l 356 623 l 370 740 q 468 943 387 877 q 701 1010 550 1010 l 701 942 q 692 914 701 922 q 660 906 682 906 q 600 897 628 906 q 550 867 572 888 q 512 815 528 847 q 490 735 497 783 l 475 623 l 699 623 l 699 533 l 467 533 z "},"†":{"ha":806,"x_min":82,"x_max":724,"o":"m 82 638 q 96 676 82 659 q 140 692 110 692 q 190 689 164 692 q 244 683 217 686 q 300 675 272 679 q 355 669 328 671 l 338 1008 q 403 1024 366 1024 q 467 1008 441 1024 l 451 669 q 561 683 506 674 q 665 692 617 692 q 710 676 696 692 q 724 638 724 659 l 724 596 l 451 596 l 451 307 l 467 -233 q 403 -249 441 -249 q 338 -233 366 -249 l 355 307 l 355 596 l 82 596 l 82 638 z "}}}
